<svg width="19" height="18" viewBox="0 0 19 18" fill="none" xmlns="http://www.w3.org/2000/svg">
<path d="M9.14345 5.30164C6.92123 5.30164 5.07996 7.11116 5.07996 9.36513C5.07996 11.6191 6.88948 13.4286 9.14345 13.4286C11.3974 13.4286 13.2069 11.5873 13.2069 9.36513C13.2069 7.14291 11.3657 5.30164 9.14345 5.30164ZM9.14345 11.9683C7.71488 11.9683 6.54027 10.7937 6.54027 9.36513C6.54027 7.93656 7.71488 6.76195 9.14345 6.76195C10.572 6.76195 11.7466 7.93656 11.7466 9.36513C11.7466 10.7937 10.572 11.9683 9.14345 11.9683Z" fill="white"/>
<path d="M13.3657 6.12704C13.8741 6.12704 14.2863 5.71485 14.2863 5.2064C14.2863 4.69795 13.8741 4.28577 13.3657 4.28577C12.8572 4.28577 12.445 4.69795 12.445 5.2064C12.445 5.71485 12.8572 6.12704 13.3657 6.12704Z" fill="white"/>
<path d="M15.7466 2.82539C14.9212 1.96825 13.7466 1.5238 12.4133 1.5238H5.87362C3.11172 1.5238 1.27045 3.36507 1.27045 6.12698V12.6349C1.27045 14 1.71489 15.1746 2.60378 16.0317C3.46092 16.8571 4.60378 17.2698 5.90537 17.2698H12.3816C13.7466 17.2698 14.8895 16.8254 15.7149 16.0317C16.572 15.2063 17.0165 14.0317 17.0165 12.6667V6.12698C17.0165 4.79364 16.572 3.65079 15.7466 2.82539ZM15.6197 12.6667C15.6197 13.6508 15.2704 14.4444 14.699 14.9841C14.1276 15.5238 13.3339 15.8095 12.3816 15.8095H5.90537C4.95299 15.8095 4.15934 15.5238 3.58791 14.9841C3.01648 14.4127 2.73076 13.619 2.73076 12.6349V6.12698C2.73076 5.1746 3.01648 4.38095 3.58791 3.80952C4.12759 3.26984 4.95299 2.98412 5.90537 2.98412H12.445C13.3974 2.98412 14.1911 3.26984 14.7625 3.84126C15.3022 4.41269 15.6197 5.20634 15.6197 6.12698V12.6667Z" fill="white"/>
</svg>
