<svg width="19" height="18" viewBox="0 0 19 18" fill="none" xmlns="http://www.w3.org/2000/svg">
<path d="M1.9955 6.53378H5.15995V16.0566H1.9955V6.53378ZM3.59891 1.94336C2.51585 1.94336 1.80826 2.65439 1.80826 3.58765C1.80826 4.50171 2.49514 5.23342 3.55749 5.23342H3.57767C4.68144 5.23342 5.36881 4.50168 5.36881 3.58765C5.34811 2.65439 4.68147 1.94336 3.59891 1.94336ZM12.9296 6.31008C11.2498 6.31008 10.4973 7.23399 10.0775 7.88192V6.53378H6.9121C6.95401 7.42714 6.9121 16.0566 6.9121 16.0566H10.0775V10.7384C10.0775 10.4536 10.0982 10.1698 10.1815 9.96573C10.4107 9.39712 10.9315 8.80829 11.8051 8.80829C12.9512 8.80829 13.409 9.68195 13.409 10.9615V16.0566H16.5739V10.596C16.5739 7.67105 15.0129 6.31008 12.9296 6.31008Z" fill="white"/>
</svg>
