<svg width="19" height="18" viewBox="0 0 19 18" fill="none" xmlns="http://www.w3.org/2000/svg">
<path d="M16.9668 6.78307C16.3918 7.03866 15.773 7.21106 15.1237 7.28821C15.7866 6.89134 16.295 6.26269 16.5347 5.51276C15.9146 5.88074 15.2282 6.14776 14.497 6.2919C13.9118 5.66833 13.0777 5.27844 12.1548 5.27844C10.3828 5.27844 8.94611 6.71513 8.94611 8.48741C8.94611 8.73855 8.97437 8.98334 9.0293 9.21861C6.3623 9.08463 3.99756 7.80733 2.41483 5.86582C2.1386 6.33953 1.98049 6.8907 1.98049 7.47935C1.98049 8.5925 2.54691 9.57485 3.40797 10.1502C2.88219 10.1333 2.38721 9.98887 1.95445 9.74852C1.95414 9.76185 1.95414 9.77551 1.95414 9.78916C1.95414 11.3436 3.06031 12.6403 4.52842 12.9356C4.25918 13.0086 3.97566 13.048 3.68292 13.048C3.47591 13.048 3.27494 13.028 3.07904 12.9902C3.48766 14.2649 4.67257 15.193 6.07655 15.2187C4.97832 16.0795 3.59497 16.5925 2.0913 16.5925C1.83253 16.5925 1.57695 16.5773 1.32581 16.5475C2.7463 17.4584 4.43286 17.9892 6.24483 17.9892C12.1475 17.9892 15.3748 13.0997 15.3748 8.8592C15.3748 8.72014 15.372 8.58139 15.3659 8.44359C15.9927 7.99211 16.5369 7.42664 16.9668 6.78307Z" fill="white"/>
</svg>
