<svg xmlns="http://www.w3.org/2000/svg" version="1.1" xmlns:xlink="http://www.w3.org/1999/xlink" xmlns:svgjs="http://svgjs.dev/svgjs" width="1500" height="939" viewBox="0 0 1500 939"><g transform="matrix(1,0,0,1,-0.9090909090909918,-1.5145161290323017)"><svg viewBox="0 0 396 248" data-background-color="#ffffff" preserveAspectRatio="xMidYMid meet" height="939" width="1500" xmlns="http://www.w3.org/2000/svg" xmlns:xlink="http://www.w3.org/1999/xlink"><g id="tight-bounds" transform="matrix(1,0,0,1,0.2400000000000091,0.4000000000000057)"><svg viewBox="0 0 395.52 247.2" height="247.2" width="395.52"><g><svg></svg></g><g><svg viewBox="0 0 395.52 247.2" height="247.2" width="395.52"><g transform="matrix(1,0,0,1,75.54432,95.21857083571608)"><svg viewBox="0 0 244.43135999999998 56.76285832856783" height="56.76285832856783" width="244.43135999999998"><g><svg viewBox="0 0 244.43135999999998 56.76285832856783" height="56.76285832856783" width="244.43135999999998"><g><svg viewBox="0 0 244.43135999999998 56.76285832856783" height="56.76285832856783" width="244.43135999999998"><g><svg viewBox="0 0 244.43135999999998 56.76285832856783" height="56.76285832856783" width="244.43135999999998"><g id="textblocktransform"><svg viewBox="0 0 244.43135999999998 56.76285832856783" height="56.76285832856783" width="244.43135999999998" id="textblock"><g><svg viewBox="0 0 244.43135999999998 35.173053259539756" height="35.173053259539756" width="244.43135999999998"><g transform="matrix(1,0,0,1,0,0)"><svg width="244.43135999999998" viewBox="3.52 -35.67 251.41 36.18" height="35.173053259539756" data-palette-color="#fbfbf8"><path d="M15.77-19.9L15.77-19.9 19.41-20.53Q22.05-20.53 22.05-18.14L22.05-18.14Q22.05-16.75 21.44-15.89 20.83-15.04 19.96-15.04 19.09-15.04 17.6-15.33 16.11-15.63 15.19-15.63L15.19-15.63Q12.04-15.63 11.13-14.75 10.23-13.87 10.23-10.55 10.23-7.23 11.12-5.6 12.01-3.98 14.65-3.98L14.65-3.98Q18.26-3.98 20.91-4.49 23.56-5 24.05-5L24.05-5Q25.83-5 25.83-3.64L25.83-3.64 25.83-3.03Q25.83-0.98 23.22-0.44L23.22-0.44Q21.29-0.05 14.16-0.05L14.16-0.05 13.23-0.05Q7.4-0.05 5.46-0.59 3.52-1.12 3.52-2.39L3.52-2.39 3.52-3.08 3.69-3.76 4.1-5.1Q4.64-7.2 4.64-13.96L4.64-13.96 5.03-24.78Q5.03-28.03 4.9-28.76 4.76-29.49 4.41-30.44 4.05-31.4 4.05-32.28L4.05-32.28Q4.05-34.4 15.75-34.4L15.75-34.4 21.12-34.4Q25.1-34.4 25.1-31.69L25.1-31.69Q25.1-30.81 24.56-30.36 24.02-29.91 23.21-29.91 22.39-29.91 20.25-30.11 18.12-30.32 15.54-30.32 12.96-30.32 11.99-29.08L11.99-29.08Q10.69-27.42 10.69-23.22L10.69-23.22Q10.69-21.39 11.78-20.64 12.87-19.9 15.77-19.9ZM32.25-33.74L32.25-33.74Q32.25-35.67 35.42-35.67L35.42-35.67 35.86-35.67Q38.13-35.67 38.43-33.79L38.43-33.79 38.43-28.49 38.38-26.66 38.38-25.76 38.3-22.97 38.3-22.07 38.28-21.58Q38.28-21.12 38.28-20.65L38.28-20.65 38.25-20.19Q38.25-19.73 38.25-19.26L38.25-19.26 38.23-18.8 38.23-16.5 38.3-13.38Q38.33-12.94 38.33-11.16 38.33-9.38 38.8-7.36 39.28-5.35 40.01-4.16 40.74-2.98 40.74-2.15 40.74-1.32 39.73-0.68 38.72-0.05 36.81-0.05L36.81-0.05 35.96-0.05Q32.52-0.05 32.52-2.78L32.52-2.78Q32.52-2.98 32.71-4.05 32.91-5.13 32.93-7.98L32.93-7.98 33.08-13.82 33.1-14.28Q33.1-14.75 33.1-15.21L33.1-15.21 33.13-16.14Q33.13-16.6 33.13-17.07L33.13-17.07 33.15-17.53Q33.15-17.99 33.15-18.46L33.15-18.46 33.18-19.38Q33.18-19.85 33.18-20.31L33.18-20.31 33.2-21.24 33.2-22.19 33.23-23.12 33.23-27.71Q33.23-30.49 32.74-31.91 32.25-33.33 32.25-33.74ZM57.73-14.38L57.73-14.38Q59.39-14.38 60.08-14.89 60.76-15.41 60.76-16.06L60.76-16.06 60.76-17.09Q60.76-18.85 59.47-20 58.17-21.14 56.64-21.14L56.64-21.14 56-21.14Q53.78-21.14 52.12-19.27 50.46-17.41 50.46-15.19L50.46-15.19 50.46-14.77Q50.46-13.92 52.02-13.92L52.02-13.92 52.58-13.92 52.73-13.94 54.56-14.06 55.78-14.16 56.61-14.26Q56.83-14.28 57.21-14.33 57.59-14.38 57.73-14.38ZM56.73 0.32L56.73 0.32 55.66 0.32Q50.78 0.32 47.82-2.98L47.82-2.98Q46.5-4.44 45.77-6.7 45.04-8.96 45.04-11.18L45.04-11.18 45.04-12.28Q45.04-14.5 45.97-16.94L45.97-16.94Q47.75-21.7 52.02-23.41L52.02-23.41Q54.22-24.32 56.68-24.32L56.68-24.32 57.22-24.32Q60.64-24.32 62.86-22.24L62.86-22.24Q64.13-21.04 64.78-19.37 65.42-17.7 65.42-16.36L65.42-16.36Q65.42-13.4 63.57-12.5L63.57-12.5Q62.3-11.89 57.77-11.35 53.24-10.82 52.8-10.69L52.8-10.69Q50.68-10.16 50.68-8.79L50.68-8.79Q50.68-6.42 52.85-4.83L52.85-4.83Q54.44-3.66 57.39-3.66L57.39-3.66Q58.52-3.66 61.03-4.37 63.54-5.08 63.79-5.08L63.79-5.08Q65.06-5.08 65.06-3.93L65.06-3.93Q65.06-2.49 62.34-1.09 59.61 0.32 56.73 0.32ZM81.24 0.24L81.24 0.24 80.71 0.24Q78.36 0.24 76.36-0.63L76.36-0.63Q72.43-2.37 71.04-6.42L71.04-6.42Q70.26-8.72 70.26-11.3L70.26-11.3 70.26-11.87Q70.26-14.75 71.11-17.09L71.11-17.09Q72.75-21.58 77.09-23.51L77.09-23.51Q79.17-24.41 82.19-24.41 85.22-24.41 87.16-23.21 89.1-22 89.1-20.26L89.1-20.26Q89.1-18.38 87.2-18.38L87.2-18.38Q86.64-18.38 85.56-19.02 84.49-19.65 84.34-19.73L84.34-19.73Q82.63-20.53 80.9-20.53L80.9-20.53Q78.53-20.53 76.99-18.32 75.46-16.11 75.46-12.02 75.46-7.93 77.28-5.83 79.09-3.74 82-3.74L82-3.74Q83.56-3.74 85.97-4.43 88.37-5.13 88.71-5.13L88.71-5.13Q89.69-5.13 89.69-4.05L89.69-4.05Q89.69-2.61 86.92-1.18 84.15 0.24 81.24 0.24ZM104.09-0.1L104.09-0.1 103.16-0.1Q99.65-0.1 98.11-3.13L98.11-3.13Q96.84-5.59 96.84-11.23 96.84-16.87 96.23-18.97L96.23-18.97Q96.01-19.75 95.01-20.75 94.01-21.75 94.01-22.49L94.01-22.49 94.01-22.8Q94.01-23.44 95.16-24.19 96.3-24.95 96.49-25.28 96.67-25.61 97.22-27.65 97.77-29.69 98.37-30.51 98.96-31.32 99.98-31.32 100.99-31.32 101.42-30.74 101.85-30.15 102.27-28.32 102.7-26.49 103.21-25.84 103.73-25.2 105.7-24.49 107.68-23.78 107.68-22.73L107.68-22.73Q107.68-21.8 105.62-21.07 103.55-20.34 103.02-19.26L103.02-19.26Q101.99-17.19 101.99-11.91 101.99-6.64 102.9-5.46 103.8-4.27 105.84-4 107.88-3.74 107.88-2.47L107.88-2.47Q107.88-1.49 106.72-0.79 105.56-0.1 104.09-0.1ZM124.94-19.29L124.94-19.29Q122.64-19.29 121.37-17 120.1-14.72 120.1-10.03L120.1-10.03Q120.1-7.96 120.28-7.09 120.45-6.23 120.8-4.94 121.15-3.66 121.15-2.72 121.15-1.78 120.03-1 118.91-0.22 117.1-0.22L117.1-0.22 116.69-0.24 116.25-0.24Q115.08-0.24 114.31-0.9 113.54-1.56 113.54-2.39L113.54-2.39 113.54-2.78Q113.54-2.95 114-4.39 114.47-5.83 114.54-7.18 114.61-8.52 114.61-10.79L114.61-10.79 114.61-13.5 114.59-13.94Q114.59-14.38 114.59-14.82L114.59-14.82 114.54-16.14Q114.51-16.58 114.51-17.86 114.51-19.14 114.06-20.3 113.61-21.46 113.61-21.8L113.61-21.8Q113.61-23.27 116.17-23.27 118.74-23.27 119.88-21.88L119.88-21.88Q120.23-21.46 120.61-21.46 120.98-21.46 121.86-22.07L121.86-22.07Q124.3-23.73 125.96-23.73L125.96-23.73 126.35-23.73Q127.82-23.73 128.59-23.07 129.36-22.41 129.36-21.31L129.36-21.31Q129.36-19.14 126.94-19.14L126.94-19.14Q125.99-19.29 124.94-19.29ZM143.2-2.83L143.2-2.83 143.69-2.83Q146.15-2.83 147.74-5 149.33-7.18 149.33-10.5L149.33-10.5 149.37-11.04 149.4-11.87 149.4-12.96Q149.4-16.6 147.92-18.96 146.44-21.31 143.98-21.31L143.98-21.31 143.49-21.31Q141.07-21.31 139.43-18.92 137.78-16.53 137.78-12.57L137.78-12.57 137.78-10.91Q137.83-10.33 137.83-10.11L137.83-10.11Q137.83-7.32 139.36-5.08 140.9-2.83 143.2-2.83ZM154.92-12.62L154.92-12.62 154.92-11.82Q154.92-9.64 154.21-7.35L154.21-7.35Q152.77-2.69 148.54-0.66L148.54-0.66Q146.1 0.51 143.71 0.51L143.71 0.51 142.88 0.51Q140.61 0.51 138.66-0.42L138.66-0.42Q134.78-2.27 133.51-6.57L133.51-6.57Q132.82-8.84 132.82-11.18L132.82-11.18 132.82-12.43Q132.82-14.72 133.53-17.02L133.53-17.02Q134.92-21.56 139.05-23.51L139.05-23.51Q141.17-24.54 143.39-24.54L143.39-24.54 144.61-24.54Q146.71-24.54 148.76-23.63L148.76-23.63Q152.87-21.83 154.28-17.19L154.28-17.19Q154.92-15.14 154.92-12.62ZM183.63-31.47L183.63-31.47Q183.63-29.15 182.21-29.15L182.21-29.15Q181.67-29.15 180.18-29.57 178.69-29.98 177.23-29.98L177.23-29.98Q173.98-29.98 173.4-27.54L173.4-27.54Q172.91-25.49 172.91-15.43L172.91-15.43 172.83-10.64 172.83-8.2Q172.83-6.76 173.02-6.03 173.2-5.3 173.58-4.25 173.96-3.2 173.96-2.59L173.96-2.59Q173.96-1.37 172.92-0.71 171.88-0.05 170.03-0.05L170.03-0.05 169.42-0.05Q168.07-0.05 167.02-0.72 165.97-1.39 165.97-2.32 165.97-3.25 166.27-4.05L166.27-4.05 166.46-4.54 166.68-5.03Q166.9-5.54 167.21-6.62 167.51-7.69 167.51-10.57L167.51-10.57 167.54-11.25Q167.56-11.94 167.56-12.62L167.56-12.62 167.61-14.01 167.68-19.53Q167.68-26.46 167.27-27.95L167.27-27.95Q166.73-29.88 164.22-29.88L164.22-29.88Q162.75-29.88 160.81-29.24 158.87-28.59 158.41-28.59L158.41-28.59Q157.21-28.59 157.21-31.08 157.21-33.57 159.33-33.91L159.33-33.91Q162.31-34.38 173.37-34.38L173.37-34.38 180.16-34.38Q182.04-34.38 182.83-33.67 183.63-32.96 183.63-31.47ZM195.56-14.38L195.56-14.38Q197.22-14.38 197.9-14.89 198.59-15.41 198.59-16.06L198.59-16.06 198.59-17.09Q198.59-18.85 197.29-20 196-21.14 194.46-21.14L194.46-21.14 193.83-21.14Q191.61-21.14 189.95-19.27 188.29-17.41 188.29-15.19L188.29-15.19 188.29-14.77Q188.29-13.92 189.85-13.92L189.85-13.92 190.41-13.92 190.56-13.94 192.39-14.06 193.61-14.16 194.44-14.26Q194.66-14.28 195.04-14.33 195.41-14.38 195.56-14.38ZM194.56 0.32L194.56 0.32 193.49 0.32Q188.6 0.32 185.65-2.98L185.65-2.98Q184.33-4.44 183.6-6.7 182.87-8.96 182.87-11.18L182.87-11.18 182.87-12.28Q182.87-14.5 183.79-16.94L183.79-16.94Q185.58-21.7 189.85-23.41L189.85-23.41Q192.05-24.32 194.51-24.32L194.51-24.32 195.05-24.32Q198.47-24.32 200.69-22.24L200.69-22.24Q201.96-21.04 202.6-19.37 203.25-17.7 203.25-16.36L203.25-16.36Q203.25-13.4 201.4-12.5L201.4-12.5Q200.13-11.89 195.6-11.35 191.07-10.82 190.63-10.69L190.63-10.69Q188.51-10.16 188.51-8.79L188.51-8.79Q188.51-6.42 190.68-4.83L190.68-4.83Q192.27-3.66 195.22-3.66L195.22-3.66Q196.34-3.66 198.86-4.37 201.37-5.08 201.62-5.08L201.62-5.08Q202.89-5.08 202.89-3.93L202.89-3.93Q202.89-2.49 200.16-1.09 197.44 0.32 194.56 0.32ZM219.07 0.24L219.07 0.24 218.53 0.24Q216.19 0.24 214.19-0.63L214.19-0.63Q210.26-2.37 208.86-6.42L208.86-6.42Q208.08-8.72 208.08-11.3L208.08-11.3 208.08-11.87Q208.08-14.75 208.94-17.09L208.94-17.09Q210.57-21.58 214.92-23.51L214.92-23.51Q216.99-24.41 220.02-24.41 223.05-24.41 224.99-23.21 226.93-22 226.93-20.26L226.93-20.26Q226.93-18.38 225.03-18.38L225.03-18.38Q224.46-18.38 223.39-19.02 222.32-19.65 222.17-19.73L222.17-19.73Q220.46-20.53 218.73-20.53L218.73-20.53Q216.36-20.53 214.82-18.32 213.28-16.11 213.28-12.02 213.28-7.93 215.1-5.83 216.92-3.74 219.83-3.74L219.83-3.74Q221.39-3.74 223.79-4.43 226.2-5.13 226.54-5.13L226.54-5.13Q227.52-5.13 227.52-4.05L227.52-4.05Q227.52-2.61 224.75-1.18 221.97 0.24 219.07 0.24ZM254.93-3.52L254.93-3.52Q254.93-0.76 251.85-0.76L251.85-0.76Q250.46-0.76 249.82-1.25 249.17-1.73 249.17-2.91L249.17-2.91 249.19-3.44 249.24-4 249.24-5.3 249.02-11.25Q249.02-16.26 247.95-18.03 246.87-19.8 244.36-19.8L244.36-19.8Q243.02-19.8 241.74-18.97 240.45-18.14 239.72-16.48 238.99-14.82 238.99-7.57L238.99-7.57Q238.99-6.57 239.15-5.08 239.31-3.59 239.31-3.54L239.31-3.54Q239.31-2.2 238.46-1.35 237.62-0.51 235.96-0.51L235.96-0.51 235.3-0.51Q232.79-0.51 232.79-2.47L232.79-2.47 232.79-3.13Q232.79-3.52 233.03-4.47L233.03-4.47 233.4-5.81Q233.84-7.89 233.84-14.31L233.84-14.31 233.84-23.56 233.96-29 233.98-29.76Q234.01-30.52 234.01-31.2 234.01-31.88 233.91-32.45L233.91-32.45 233.79-32.96Q233.62-33.72 233.62-33.86L233.62-33.86Q233.62-35.01 234.98-35.01L234.98-35.01 235.62-35.01Q238.11-35.01 238.74-32.91L238.74-32.91Q239.04-31.98 239.14-28.87 239.23-25.76 239.42-24.18 239.6-22.61 240.45-22.61L240.45-22.61Q240.77-22.61 241.36-22.8L241.36-22.8 241.89-23.02Q244.43-24.15 246.43-24.15L246.43-24.15Q250.88-24.15 252.64-20.48L252.64-20.48Q253.86-17.94 253.86-10.52L253.86-10.52Q253.86-7.81 254.39-5.92 254.93-4.03 254.93-3.52Z" opacity="1" transform="matrix(1,0,0,1,0,0)" fill="#fbfbf8" class="wordmark-text-0" data-fill-palette-color="primary" id="text-0"></path></svg></g></svg></g><g transform="matrix(1,0,0,1,0,43.47656698083887)"><svg viewBox="0 0 244.43135999999998 13.286291347728962" height="13.286291347728962" width="244.43135999999998"><g transform="matrix(1,0,0,1,0,0)"><svg width="244.43135999999998" viewBox="2.3 -35.5 671.38 36.5" height="13.286291347728962" data-palette-color="#fbfbf8"><path d="M13.45-6.05L14.05-1 2.3-1 3.45-35.5 13.6-35.5 13.6-31.6 6.45-31.6 6.45-21.3 11.9-21.3 11.9-18.8 6.7-17.9 6.7-5.15 13.45-6.05ZM20.9 0L18.3 0 18.3-35.5 21.9-35.5 25.55-13.8 25.95-13.8 29.35-35.5 32.25-35.5 33.4 0 30.1 0 30.1-26.75 29.75-26.75 26.3-7.85 24.65-7.5 21.1-29.45 20.9-29.45 20.9 0ZM38.4-34.35Q38.4-34.85 40.25-35.18 42.1-35.5 43.85-35.5L43.85-35.5 46-35.5Q46.65-35.5 47.22-35.23 47.8-34.95 47.8-34.45L47.8-34.45 48.35-18.95 46.6-15.85 41.1-15.3 40.7 0 37.25 0 38.4-34.35ZM41.4-19.1L44.65-19.25Q44.95-19.25 44.95-19.55L44.95-19.55 44.95-32.5 44.2-33.25 41.4-32.9 41.4-19.1ZM62.84 0L56.19 0Q54.14 0 53.34-0.65 52.54-1.3 52.54-2.8L52.54-2.8 52.54-34.3Q53.64-34.9 55.42-35.2 57.19-35.5 60.14-35.5L60.14-35.5Q61.49-35.5 62.34-34.83 63.19-34.15 63.19-33.1L63.19-33.1 62.84 0ZM55.74-3.15L59.29-2.85 59.74-3.3 60.04-31.85Q60.04-32.1 59.59-32.15L59.59-32.15 56.49-32.3 56.04-32 55.74-3.15ZM84.64-0.5L79.84-0.5 76.04-25 75.84-25 74.69 0 69.44 0 65.99-35.5 69.24-35.5 71.79-1.85 71.99-1.85 74.44-34.5 78.04-34.5 77.74-26.95 81.89-1.65 82.14-1.65 83.24-35 86.29-35 84.64-0.5ZM100.09-4.15L100.09 0 89.39 0 89.39-35.5 100.09-35.5 100.09-32.4 93.84-32.7 93.84-21.35 100.09-20.2 100.09-17.8 92.99-18.1 92.99-3.75 100.09-4.15ZM105.64-34.95Q105.64-35.2 107.69-35.35 109.74-35.5 111.74-35.5L111.74-35.5 113.89-35.5Q114.69-35.5 115.19-34.9 115.69-34.3 115.74-33.35L115.74-33.35 116.24-18.95 113.99-16 117.99-1.1 117.04 0 114.09 0 111.54-15.55 108.99-15.3 107.94 0 105.64 0 105.64-34.95ZM108.79-19.05L112.54-19.25Q112.84-19.25 112.84-19.55L112.84-19.55 112.84-32 112.09-32.75 108.64-32.4 108.79-19.05ZM124.73-35.5L125.78-1 121.58-1 121.58-35.5 124.73-35.5ZM142.58-35.5L141.58 1 138.18 1 133.28-27.7 133.08-27.7 132.13 1 129.58 1 131.18-35.5 134.23-35.5 139.28-6.55 139.63-6.55 139.63-35.5 142.58-35.5ZM160.63-14.7L158.68-13.85 158.68-2.9Q158.68-1.6 157.63-0.8 156.58 0 155.18 0L155.18 0 147.68 0 146.58-32.8Q146.63-34 147.3-34.75 147.98-35.5 149.03-35.5L149.03-35.5 159.03-35.5 159.03-33.4 158.13-27.95 155.93-27.95 155.93-32.75 150.33-31.5 151.18-5.6Q151.18-5.25 151.53-4.98 151.88-4.7 152.23-4.7L152.23-4.7 154.53-4.7Q154.88-4.7 155.2-4.88 155.53-5.05 155.53-5.3L155.53-5.3 155.53-17.15 160.63-16.65 160.63-14.7ZM190.22-0.5L185.42-0.5 181.62-25 181.42-25 180.27 0 175.02 0 171.57-35.5 174.82-35.5 177.37-1.85 177.57-1.85 180.02-34.5 183.62-34.5 183.32-26.95 187.47-1.65 187.72-1.65 188.82-35 191.87-35 190.22-0.5ZM197.87-35.5L198.92-1 194.72-1 194.72-35.5 197.87-35.5ZM202.87-35.5L213.22-34.8 213.47-31.65 209.07-31.65 209.07 0 204.82 0 205.82-30.75 202.22-31.95 202.87-35.5ZM226.67 0L225.22-15.5 220.92-16.35 220.92 0 217.22 0 217.22-35.5 220.82-35.5 220.27-19.75 225.22-20 225.22-35.5 228.87-35.5 228.87 0 226.67 0ZM246.91-35.5L246.46 0 242.76 0 242.76-30.8 241.86-33.2 241.86-35.5 246.91-35.5ZM263.91-35.5L262.91 1 259.51 1 254.61-27.7 254.41-27.7 253.46 1 250.91 1 252.51-35.5 255.56-35.5 260.61-6.55 260.96-6.55 260.96-35.5 263.91-35.5ZM280.66-35.5L279.66 1 276.26 1 271.36-27.7 271.16-27.7 270.21 1 267.66 1 269.26-35.5 272.31-35.5 277.36-6.55 277.71-6.55 277.71-35.5 280.66-35.5ZM295.4 0L288.75 0Q286.7 0 285.9-0.65 285.1-1.3 285.1-2.8L285.1-2.8 285.1-34.3Q286.2-34.9 287.98-35.2 289.75-35.5 292.7-35.5L292.7-35.5Q294.05-35.5 294.9-34.83 295.75-34.15 295.75-33.1L295.75-33.1 295.4 0ZM288.3-3.15L291.85-2.85 292.3-3.3 292.6-31.85Q292.6-32.1 292.15-32.15L292.15-32.15 289.05-32.3 288.6-32 288.3-3.15ZM307.3 0L302.05 0 299.1-35.5 302.25-35.5 305.25-1.25 305.5-1.25 308.85-35 312.15-35 307.3 0ZM324-35.5L326.05 0 323.85 0 322.05-13.3 318.05-11.4 316.95 0 313.85 0 316.1-35.5 324-35.5ZM321.4-33.1Q321.4-33.4 321.1-33.4L321.1-33.4 318.95-32.9Q318.65-32.75 318.65-32.4L318.65-32.4 318.65-14.8Q318.65-14.55 318.95-14.55L318.95-14.55 320.8-14.85Q321.1-14.85 321.1-15.15L321.1-15.15 321.4-33.1ZM329.6-35.5L339.95-34.8 340.2-31.65 335.8-31.65 335.8 0 331.55 0 332.55-30.75 328.95-31.95 329.6-35.5ZM347.09-35.5L348.14-1 343.94-1 343.94-35.5 347.09-35.5ZM359.24 0L353.99 0 351.04-35.5 354.19-35.5 357.19-1.25 357.44-1.25 360.79-35 364.09-35 359.24 0ZM377.69-4.15L377.69 0 366.99 0 366.99-35.5 377.69-35.5 377.69-32.4 371.44-32.7 371.44-21.35 377.69-20.2 377.69-17.8 370.59-18.1 370.59-3.75 377.69-4.15ZM403.08-6.05L403.68-1 391.93-1 393.08-35.5 403.23-35.5 403.23-31.6 396.08-31.6 396.08-21.3 401.53-21.3 401.53-18.8 396.33-17.9 396.33-5.15 403.08-6.05ZM418.03-3.45L418.03 0 407.93 0 407.93-35.5 411.63-35.5 411.63-5.25 412.38-4.1 418.03-3.45ZM433.23-4.15L433.23 0 422.53 0 422.53-35.5 433.23-35.5 433.23-32.4 426.98-32.7 426.98-21.35 433.23-20.2 433.23-17.8 426.13-18.1 426.13-3.75 433.23-4.15ZM451.08-9.35L451.08-1 440.43-1 438.38-3.1 439.38-32.65Q439.43-33.75 440.3-34.63 441.18-35.5 442.73-35.5L442.73-35.5 443.38-35.45 451.08-34.45 450.28-26.4 447.98-26.4 447.98-31.05Q447.98-31.5 447.38-31.5L447.38-31.5 444.28-31.5Q443.33-31.5 442.9-30.73 442.48-29.95 442.48-29L442.48-29Q442.48-28.45 442.63-28.35L442.63-28.35 442.63-4.95Q442.48-4.9 442.48-4.8L442.48-4.8Q442.48-4.65 442.93-4.65L442.93-4.65 447.88-4.65Q448.48-4.65 448.48-4.95L448.48-4.95 448.48-8.7 449.43-9.3 451.08-9.35ZM454.87-35.5L465.22-34.8 465.47-31.65 461.07-31.65 461.07 0 456.82 0 457.82-30.75 454.22-31.95 454.87-35.5ZM469.22-34.95Q469.22-35.2 471.27-35.35 473.32-35.5 475.32-35.5L475.32-35.5 477.47-35.5Q478.27-35.5 478.77-34.9 479.27-34.3 479.32-33.35L479.32-33.35 479.82-18.95 477.57-16 481.57-1.1 480.62 0 477.67 0 475.12-15.55 472.57-15.3 471.52 0 469.22 0 469.22-34.95ZM472.37-19.05L476.12-19.25Q476.42-19.25 476.42-19.55L476.42-19.55 476.42-32 475.67-32.75 472.22-32.4 472.37-19.05ZM488.32-35.5L489.37-1 485.17-1 485.17-35.5 488.32-35.5ZM506.22-9.35L506.22-1 495.57-1 493.52-3.1 494.52-32.65Q494.57-33.75 495.44-34.63 496.32-35.5 497.87-35.5L497.87-35.5 498.52-35.45 506.22-34.45 505.42-26.4 503.12-26.4 503.12-31.05Q503.12-31.5 502.52-31.5L502.52-31.5 499.42-31.5Q498.47-31.5 498.04-30.73 497.62-29.95 497.62-29L497.62-29Q497.62-28.45 497.77-28.35L497.77-28.35 497.77-4.95Q497.62-4.9 497.62-4.8L497.62-4.8Q497.62-4.65 498.07-4.65L498.07-4.65 503.02-4.65Q503.62-4.65 503.62-4.95L503.62-4.95 503.62-8.7 504.57-9.3 506.22-9.35ZM519.81-35.5L521.86 0 519.66 0 517.86-13.3 513.86-11.4 512.76 0 509.66 0 511.91-35.5 519.81-35.5ZM517.21-33.1Q517.21-33.4 516.91-33.4L516.91-33.4 514.76-32.9Q514.46-32.75 514.46-32.4L514.46-32.4 514.46-14.8Q514.46-14.55 514.76-14.55L514.76-14.55 516.61-14.85Q516.91-14.85 516.91-15.15L516.91-15.15 517.21-33.1ZM536.11-3.45L536.11 0 526.01 0 526.01-35.5 529.71-35.5 529.71-5.25 530.46-4.1 536.11-3.45ZM552-32.1L552.75-21.05 559.11-19.4 559.11-3Q559.11-1.95 558.05-0.98 557 0 555.9 0L555.9 0 548.75 0 548.75-3.4 555.71-3.4 554.5-16.8 548.75-18.3 548.75-33.15Q548.75-33.95 549.38-34.73 550-35.5 550.75-35.5L550.75-35.5 559.11-35.5 559.11-33.05 552-32.1ZM573.85 0L567.2 0Q565.15 0 564.35-0.65 563.55-1.3 563.55-2.8L563.55-2.8 563.55-34.3Q564.65-34.9 566.43-35.2 568.2-35.5 571.15-35.5L571.15-35.5Q572.5-35.5 573.35-34.83 574.2-34.15 574.2-33.1L574.2-33.1 573.85 0ZM566.75-3.15L570.3-2.85 570.75-3.3 571.05-31.85Q571.05-32.1 570.6-32.15L570.6-32.15 567.5-32.3 567.05-32 566.75-3.15ZM589.3-3.45L589.3 0 579.2 0 579.2-35.5 582.9-35.5 582.9-5.25 583.65-4.1 589.3-3.45ZM593.95-35L597.65-35 596.6-3.1 600.8-3.4 600.8-34.35 604.3-34.15 604.3 1 592.8 1 593.95-35ZM608.14-35.5L618.49-34.8 618.74-31.65 614.34-31.65 614.34 0 610.09 0 611.09-30.75 607.49-31.95 608.14-35.5ZM625.64-35.5L626.69-1 622.49-1 622.49-35.5 625.64-35.5ZM641.49 0L634.84 0Q632.79 0 631.99-0.65 631.19-1.3 631.19-2.8L631.19-2.8 631.19-34.3Q632.29-34.9 634.06-35.2 635.84-35.5 638.79-35.5L638.79-35.5Q640.14-35.5 640.99-34.83 641.84-34.15 641.84-33.1L641.84-33.1 641.49 0ZM634.39-3.15L637.94-2.85 638.39-3.3 638.69-31.85Q638.69-32.1 638.24-32.15L638.24-32.15 635.14-32.3 634.69-32 634.39-3.15ZM659.09-35.5L658.09 1 654.69 1 649.79-27.7 649.59-27.7 648.64 1 646.09 1 647.69-35.5 650.74-35.5 655.79-6.55 656.14-6.55 656.14-35.5 659.09-35.5ZM673.03-28.45L671.18-28.45 670.18-32.35 667.18-32 666.43-20.9 673.68-19.6 672.98-3Q672.98-2 671.68-1 670.38 0 669.28 0L669.28 0 663.43 0 662.98-8.55 665.93-8.55 665.88-4.2 669.38-3.4 670.18-16.7 663.43-18.2 663.43-34.3 665.43-35.5 673.28-35.5 673.03-28.45Z" opacity="1" transform="matrix(1,0,0,1,0,0)" fill="#fbfbf8" class="slogan-text-1" data-fill-palette-color="secondary" id="text-1"></path></svg></g></svg></g></svg></g></svg></g></svg></g></svg></g></svg></g><path d="M198.422 89.219L198.422 26.018 3.258 26.018 3.258 221.182 198.422 221.182 198.422 157.981 195.25 157.981 195.25 218.01 6.43 218.01 6.43 29.19 195.25 29.19 195.25 89.219Z" fill="#fbfbf8" stroke="transparent" data-fill-palette-color="tertiary"></path></svg></g><defs></defs></svg><rect width="395.52" height="247.2" fill="none" stroke="none" visibility="hidden"></rect></g></svg></g></svg>