<svg width="122" height="45" viewBox="0 0 122 45" fill="none" xmlns="http://www.w3.org/2000/svg">
<g filter="url(#filter0_bd_179_362)">
<rect x="1" width="114" height="36" rx="10" fill="#E9E9E9" fill-opacity="0.2" shape-rendering="crispEdges"/>
<rect x="1.5" y="0.5" width="113" height="35" rx="9.5" stroke="url(#paint0_linear_179_362)" shape-rendering="crispEdges"/>
<path d="M26.5029 14.626C26.0973 14.626 25.7373 14.7057 25.4229 14.8652C25.113 15.0202 24.8509 15.2458 24.6367 15.542C24.4271 15.8382 24.2676 16.196 24.1582 16.6152C24.0488 17.0345 23.9941 17.5062 23.9941 18.0303C23.9941 18.7367 24.0807 19.3405 24.2539 19.8418C24.4316 20.3385 24.7051 20.7191 25.0742 20.9834C25.4434 21.2432 25.9196 21.373 26.5029 21.373C26.9085 21.373 27.3141 21.3275 27.7197 21.2363C28.1299 21.1452 28.5742 21.0153 29.0527 20.8467V22.624C28.6107 22.8063 28.1755 22.9362 27.7471 23.0137C27.3187 23.0957 26.8379 23.1367 26.3047 23.1367C25.2747 23.1367 24.4271 22.9248 23.7617 22.501C23.1009 22.0726 22.611 21.4756 22.292 20.71C21.973 19.9398 21.8135 19.042 21.8135 18.0166C21.8135 17.2601 21.916 16.5674 22.1211 15.9385C22.3262 15.3096 22.627 14.765 23.0234 14.3047C23.4199 13.8444 23.9098 13.4889 24.4932 13.2383C25.0765 12.9876 25.7464 12.8623 26.5029 12.8623C26.9997 12.8623 27.4964 12.9261 27.9932 13.0537C28.4945 13.1768 28.973 13.3477 29.4287 13.5664L28.7451 15.2891C28.3714 15.1113 27.9954 14.9564 27.6172 14.8242C27.2389 14.6921 26.8675 14.626 26.5029 14.626ZM37.9668 19.165C37.9668 19.8031 37.8802 20.3682 37.707 20.8604C37.5384 21.3525 37.29 21.7695 36.9619 22.1113C36.6383 22.4486 36.2464 22.7038 35.7861 22.877C35.3304 23.0501 34.8154 23.1367 34.2412 23.1367C33.7035 23.1367 33.209 23.0501 32.7578 22.877C32.3112 22.7038 31.9215 22.4486 31.5889 22.1113C31.2607 21.7695 31.0055 21.3525 30.8232 20.8604C30.6455 20.3682 30.5566 19.8031 30.5566 19.165C30.5566 18.3174 30.707 17.5996 31.0078 17.0117C31.3086 16.4238 31.737 15.9772 32.293 15.6719C32.849 15.3665 33.512 15.2139 34.2822 15.2139C34.9977 15.2139 35.6312 15.3665 36.1826 15.6719C36.7386 15.9772 37.1738 16.4238 37.4883 17.0117C37.8073 17.5996 37.9668 18.3174 37.9668 19.165ZM32.6826 19.165C32.6826 19.6663 32.7373 20.0879 32.8467 20.4297C32.9561 20.7715 33.127 21.029 33.3594 21.2021C33.5918 21.3753 33.8949 21.4619 34.2686 21.4619C34.6377 21.4619 34.9362 21.3753 35.1641 21.2021C35.3965 21.029 35.5651 20.7715 35.6699 20.4297C35.7793 20.0879 35.834 19.6663 35.834 19.165C35.834 18.6592 35.7793 18.2399 35.6699 17.9072C35.5651 17.57 35.3965 17.3171 35.1641 17.1484C34.9316 16.9798 34.6286 16.8955 34.2549 16.8955C33.7035 16.8955 33.3024 17.0846 33.0518 17.4629C32.8057 17.8411 32.6826 18.4085 32.6826 19.165ZM44.0303 15.2139C44.846 15.2139 45.5023 15.4372 45.999 15.8838C46.4958 16.3258 46.7441 17.0368 46.7441 18.0166V23H44.6592V18.5361C44.6592 17.9893 44.5589 17.5768 44.3584 17.2988C44.1624 17.0208 43.8525 16.8818 43.4287 16.8818C42.7907 16.8818 42.3555 17.0983 42.123 17.5312C41.8906 17.9642 41.7744 18.5885 41.7744 19.4043V23H39.6895V15.3574H41.2822L41.5625 16.335H41.6787C41.8428 16.0706 42.0456 15.8564 42.2871 15.6924C42.5332 15.5283 42.8044 15.4076 43.1006 15.3301C43.4014 15.2526 43.7113 15.2139 44.0303 15.2139ZM52.1104 21.4756C52.3382 21.4756 52.5592 21.4528 52.7734 21.4072C52.9922 21.3617 53.2087 21.3047 53.4229 21.2363V22.7881C53.1995 22.8883 52.9215 22.9704 52.5889 23.0342C52.2607 23.1025 51.9007 23.1367 51.5088 23.1367C51.0531 23.1367 50.6429 23.0638 50.2783 22.918C49.9183 22.7676 49.6335 22.5101 49.4238 22.1455C49.2188 21.7764 49.1162 21.2637 49.1162 20.6074V16.9229H48.1182V16.041L49.2666 15.3438L49.8682 13.7305H51.2012V15.3574H53.3408V16.9229H51.2012V20.6074C51.2012 20.8991 51.2832 21.1178 51.4473 21.2637C51.6159 21.4049 51.8369 21.4756 52.1104 21.4756ZM58.1055 15.2002C59.1309 15.2002 59.917 15.4235 60.4639 15.8701C61.0107 16.3167 61.2842 16.9958 61.2842 17.9072V23H59.8281L59.4248 21.9609H59.3701C59.1514 22.2344 58.9281 22.4577 58.7002 22.6309C58.4723 22.804 58.2103 22.9316 57.9141 23.0137C57.6178 23.0957 57.2578 23.1367 56.834 23.1367C56.3828 23.1367 55.9772 23.0501 55.6172 22.877C55.2617 22.7038 54.9814 22.4395 54.7764 22.084C54.5713 21.724 54.4688 21.2682 54.4688 20.7168C54.4688 19.9056 54.7536 19.3086 55.3232 18.9258C55.8929 18.5384 56.7474 18.3242 57.8867 18.2832L59.2129 18.2422V17.9072C59.2129 17.5062 59.1081 17.2122 58.8984 17.0254C58.6888 16.8385 58.3971 16.7451 58.0234 16.7451C57.6543 16.7451 57.292 16.7975 56.9365 16.9023C56.5811 17.0072 56.2256 17.1393 55.8701 17.2988L55.1797 15.8906C55.5853 15.6764 56.0387 15.5078 56.54 15.3848C57.0459 15.2617 57.5677 15.2002 58.1055 15.2002ZM59.2129 19.459L58.4062 19.4863C57.7318 19.5046 57.2624 19.6253 56.998 19.8486C56.7383 20.0719 56.6084 20.3659 56.6084 20.7305C56.6084 21.0495 56.7018 21.2773 56.8887 21.4141C57.0755 21.5462 57.3193 21.6123 57.6201 21.6123C58.0667 21.6123 58.4427 21.4801 58.748 21.2158C59.0579 20.9515 59.2129 20.5755 59.2129 20.0879V19.459ZM66.541 23.1367C65.7845 23.1367 65.1396 23 64.6064 22.7266C64.0732 22.4486 63.6676 22.0202 63.3896 21.4414C63.1117 20.8626 62.9727 20.1221 62.9727 19.2197C62.9727 18.2855 63.1299 17.5244 63.4443 16.9365C63.7633 16.3441 64.2031 15.9089 64.7637 15.6309C65.3288 15.3529 65.9827 15.2139 66.7256 15.2139C67.2542 15.2139 67.71 15.2663 68.0928 15.3711C68.4801 15.4714 68.8174 15.5921 69.1045 15.7334L68.4893 17.3467C68.1611 17.2145 67.8558 17.1074 67.5732 17.0254C67.2907 16.9388 67.0081 16.8955 66.7256 16.8955C66.361 16.8955 66.0579 16.9821 65.8164 17.1553C65.5749 17.3239 65.3949 17.5791 65.2764 17.9209C65.1579 18.2627 65.0986 18.6911 65.0986 19.2061C65.0986 19.7119 65.1624 20.1312 65.29 20.4639C65.4176 20.7965 65.6022 21.0449 65.8438 21.209C66.0853 21.3685 66.3792 21.4482 66.7256 21.4482C67.1585 21.4482 67.5436 21.3913 67.8809 21.2773C68.2181 21.1589 68.5462 20.9948 68.8652 20.7852V22.5693C68.5462 22.7699 68.2113 22.9134 67.8604 23C67.514 23.0911 67.0742 23.1367 66.541 23.1367ZM73.8623 21.4756C74.0902 21.4756 74.3112 21.4528 74.5254 21.4072C74.7441 21.3617 74.9606 21.3047 75.1748 21.2363V22.7881C74.9515 22.8883 74.6735 22.9704 74.3408 23.0342C74.0127 23.1025 73.6527 23.1367 73.2607 23.1367C72.805 23.1367 72.3949 23.0638 72.0303 22.918C71.6702 22.7676 71.3854 22.5101 71.1758 22.1455C70.9707 21.7764 70.8682 21.2637 70.8682 20.6074V16.9229H69.8701V16.041L71.0186 15.3438L71.6201 13.7305H72.9531V15.3574H75.0928V16.9229H72.9531V20.6074C72.9531 20.8991 73.0352 21.1178 73.1992 21.2637C73.3678 21.4049 73.5889 21.4756 73.8623 21.4756ZM87.377 15.3574V23H85.7773L85.4971 22.0225H85.3877C85.2236 22.2822 85.0186 22.4941 84.7725 22.6582C84.5264 22.8223 84.2552 22.943 83.959 23.0205C83.6628 23.098 83.3551 23.1367 83.0361 23.1367C82.4893 23.1367 82.013 23.041 81.6074 22.8496C81.2018 22.6536 80.8851 22.3506 80.6572 21.9404C80.4339 21.5303 80.3223 20.9971 80.3223 20.3408V15.3574H82.4072V19.8213C82.4072 20.3682 82.5052 20.7806 82.7012 21.0586C82.8971 21.3366 83.2093 21.4756 83.6377 21.4756C84.0615 21.4756 84.3942 21.3799 84.6357 21.1885C84.8773 20.9925 85.0459 20.7077 85.1416 20.334C85.2419 19.9557 85.292 19.4954 85.292 18.9531V15.3574H87.377ZM94.8965 20.7305C94.8965 21.25 94.7734 21.6898 94.5273 22.0498C94.2858 22.4053 93.9235 22.6764 93.4404 22.8633C92.9574 23.0456 92.3558 23.1367 91.6357 23.1367C91.1025 23.1367 90.6445 23.1025 90.2617 23.0342C89.8835 22.9658 89.5007 22.8519 89.1133 22.6924V20.9697C89.528 21.1566 89.9723 21.3115 90.4463 21.4346C90.9248 21.5531 91.3441 21.6123 91.7041 21.6123C92.1097 21.6123 92.3991 21.5531 92.5723 21.4346C92.75 21.3115 92.8389 21.152 92.8389 20.9561C92.8389 20.8285 92.8024 20.7145 92.7295 20.6143C92.6611 20.5094 92.5107 20.3932 92.2783 20.2656C92.0459 20.1335 91.6813 19.9626 91.1846 19.7529C90.7061 19.5524 90.3118 19.3496 90.002 19.1445C89.6966 18.9395 89.4688 18.6979 89.3184 18.4199C89.1725 18.1374 89.0996 17.7796 89.0996 17.3467C89.0996 16.6403 89.373 16.1094 89.9199 15.7539C90.4714 15.3939 91.2074 15.2139 92.1279 15.2139C92.6019 15.2139 93.0531 15.2617 93.4814 15.3574C93.9144 15.4531 94.3587 15.6058 94.8145 15.8154L94.1855 17.3193C93.8073 17.1553 93.4495 17.0208 93.1123 16.916C92.7796 16.8112 92.4401 16.7588 92.0938 16.7588C91.7884 16.7588 91.5583 16.7998 91.4033 16.8818C91.2484 16.9639 91.1709 17.0892 91.1709 17.2578C91.1709 17.3809 91.2096 17.4902 91.2871 17.5859C91.3691 17.6816 91.5241 17.7887 91.752 17.9072C91.9844 18.0212 92.3239 18.1693 92.7705 18.3516C93.2035 18.5293 93.5794 18.7161 93.8984 18.9121C94.2174 19.1035 94.4635 19.3428 94.6367 19.6299C94.8099 19.9124 94.8965 20.2793 94.8965 20.7305Z" fill="black"/>
<path d="M26.5029 14.626C26.0973 14.626 25.7373 14.7057 25.4229 14.8652C25.113 15.0202 24.8509 15.2458 24.6367 15.542C24.4271 15.8382 24.2676 16.196 24.1582 16.6152C24.0488 17.0345 23.9941 17.5062 23.9941 18.0303C23.9941 18.7367 24.0807 19.3405 24.2539 19.8418C24.4316 20.3385 24.7051 20.7191 25.0742 20.9834C25.4434 21.2432 25.9196 21.373 26.5029 21.373C26.9085 21.373 27.3141 21.3275 27.7197 21.2363C28.1299 21.1452 28.5742 21.0153 29.0527 20.8467V22.624C28.6107 22.8063 28.1755 22.9362 27.7471 23.0137C27.3187 23.0957 26.8379 23.1367 26.3047 23.1367C25.2747 23.1367 24.4271 22.9248 23.7617 22.501C23.1009 22.0726 22.611 21.4756 22.292 20.71C21.973 19.9398 21.8135 19.042 21.8135 18.0166C21.8135 17.2601 21.916 16.5674 22.1211 15.9385C22.3262 15.3096 22.627 14.765 23.0234 14.3047C23.4199 13.8444 23.9098 13.4889 24.4932 13.2383C25.0765 12.9876 25.7464 12.8623 26.5029 12.8623C26.9997 12.8623 27.4964 12.9261 27.9932 13.0537C28.4945 13.1768 28.973 13.3477 29.4287 13.5664L28.7451 15.2891C28.3714 15.1113 27.9954 14.9564 27.6172 14.8242C27.2389 14.6921 26.8675 14.626 26.5029 14.626ZM37.9668 19.165C37.9668 19.8031 37.8802 20.3682 37.707 20.8604C37.5384 21.3525 37.29 21.7695 36.9619 22.1113C36.6383 22.4486 36.2464 22.7038 35.7861 22.877C35.3304 23.0501 34.8154 23.1367 34.2412 23.1367C33.7035 23.1367 33.209 23.0501 32.7578 22.877C32.3112 22.7038 31.9215 22.4486 31.5889 22.1113C31.2607 21.7695 31.0055 21.3525 30.8232 20.8604C30.6455 20.3682 30.5566 19.8031 30.5566 19.165C30.5566 18.3174 30.707 17.5996 31.0078 17.0117C31.3086 16.4238 31.737 15.9772 32.293 15.6719C32.849 15.3665 33.512 15.2139 34.2822 15.2139C34.9977 15.2139 35.6312 15.3665 36.1826 15.6719C36.7386 15.9772 37.1738 16.4238 37.4883 17.0117C37.8073 17.5996 37.9668 18.3174 37.9668 19.165ZM32.6826 19.165C32.6826 19.6663 32.7373 20.0879 32.8467 20.4297C32.9561 20.7715 33.127 21.029 33.3594 21.2021C33.5918 21.3753 33.8949 21.4619 34.2686 21.4619C34.6377 21.4619 34.9362 21.3753 35.1641 21.2021C35.3965 21.029 35.5651 20.7715 35.6699 20.4297C35.7793 20.0879 35.834 19.6663 35.834 19.165C35.834 18.6592 35.7793 18.2399 35.6699 17.9072C35.5651 17.57 35.3965 17.3171 35.1641 17.1484C34.9316 16.9798 34.6286 16.8955 34.2549 16.8955C33.7035 16.8955 33.3024 17.0846 33.0518 17.4629C32.8057 17.8411 32.6826 18.4085 32.6826 19.165ZM44.0303 15.2139C44.846 15.2139 45.5023 15.4372 45.999 15.8838C46.4958 16.3258 46.7441 17.0368 46.7441 18.0166V23H44.6592V18.5361C44.6592 17.9893 44.5589 17.5768 44.3584 17.2988C44.1624 17.0208 43.8525 16.8818 43.4287 16.8818C42.7907 16.8818 42.3555 17.0983 42.123 17.5312C41.8906 17.9642 41.7744 18.5885 41.7744 19.4043V23H39.6895V15.3574H41.2822L41.5625 16.335H41.6787C41.8428 16.0706 42.0456 15.8564 42.2871 15.6924C42.5332 15.5283 42.8044 15.4076 43.1006 15.3301C43.4014 15.2526 43.7113 15.2139 44.0303 15.2139ZM52.1104 21.4756C52.3382 21.4756 52.5592 21.4528 52.7734 21.4072C52.9922 21.3617 53.2087 21.3047 53.4229 21.2363V22.7881C53.1995 22.8883 52.9215 22.9704 52.5889 23.0342C52.2607 23.1025 51.9007 23.1367 51.5088 23.1367C51.0531 23.1367 50.6429 23.0638 50.2783 22.918C49.9183 22.7676 49.6335 22.5101 49.4238 22.1455C49.2188 21.7764 49.1162 21.2637 49.1162 20.6074V16.9229H48.1182V16.041L49.2666 15.3438L49.8682 13.7305H51.2012V15.3574H53.3408V16.9229H51.2012V20.6074C51.2012 20.8991 51.2832 21.1178 51.4473 21.2637C51.6159 21.4049 51.8369 21.4756 52.1104 21.4756ZM58.1055 15.2002C59.1309 15.2002 59.917 15.4235 60.4639 15.8701C61.0107 16.3167 61.2842 16.9958 61.2842 17.9072V23H59.8281L59.4248 21.9609H59.3701C59.1514 22.2344 58.9281 22.4577 58.7002 22.6309C58.4723 22.804 58.2103 22.9316 57.9141 23.0137C57.6178 23.0957 57.2578 23.1367 56.834 23.1367C56.3828 23.1367 55.9772 23.0501 55.6172 22.877C55.2617 22.7038 54.9814 22.4395 54.7764 22.084C54.5713 21.724 54.4688 21.2682 54.4688 20.7168C54.4688 19.9056 54.7536 19.3086 55.3232 18.9258C55.8929 18.5384 56.7474 18.3242 57.8867 18.2832L59.2129 18.2422V17.9072C59.2129 17.5062 59.1081 17.2122 58.8984 17.0254C58.6888 16.8385 58.3971 16.7451 58.0234 16.7451C57.6543 16.7451 57.292 16.7975 56.9365 16.9023C56.5811 17.0072 56.2256 17.1393 55.8701 17.2988L55.1797 15.8906C55.5853 15.6764 56.0387 15.5078 56.54 15.3848C57.0459 15.2617 57.5677 15.2002 58.1055 15.2002ZM59.2129 19.459L58.4062 19.4863C57.7318 19.5046 57.2624 19.6253 56.998 19.8486C56.7383 20.0719 56.6084 20.3659 56.6084 20.7305C56.6084 21.0495 56.7018 21.2773 56.8887 21.4141C57.0755 21.5462 57.3193 21.6123 57.6201 21.6123C58.0667 21.6123 58.4427 21.4801 58.748 21.2158C59.0579 20.9515 59.2129 20.5755 59.2129 20.0879V19.459ZM66.541 23.1367C65.7845 23.1367 65.1396 23 64.6064 22.7266C64.0732 22.4486 63.6676 22.0202 63.3896 21.4414C63.1117 20.8626 62.9727 20.1221 62.9727 19.2197C62.9727 18.2855 63.1299 17.5244 63.4443 16.9365C63.7633 16.3441 64.2031 15.9089 64.7637 15.6309C65.3288 15.3529 65.9827 15.2139 66.7256 15.2139C67.2542 15.2139 67.71 15.2663 68.0928 15.3711C68.4801 15.4714 68.8174 15.5921 69.1045 15.7334L68.4893 17.3467C68.1611 17.2145 67.8558 17.1074 67.5732 17.0254C67.2907 16.9388 67.0081 16.8955 66.7256 16.8955C66.361 16.8955 66.0579 16.9821 65.8164 17.1553C65.5749 17.3239 65.3949 17.5791 65.2764 17.9209C65.1579 18.2627 65.0986 18.6911 65.0986 19.2061C65.0986 19.7119 65.1624 20.1312 65.29 20.4639C65.4176 20.7965 65.6022 21.0449 65.8438 21.209C66.0853 21.3685 66.3792 21.4482 66.7256 21.4482C67.1585 21.4482 67.5436 21.3913 67.8809 21.2773C68.2181 21.1589 68.5462 20.9948 68.8652 20.7852V22.5693C68.5462 22.7699 68.2113 22.9134 67.8604 23C67.514 23.0911 67.0742 23.1367 66.541 23.1367ZM73.8623 21.4756C74.0902 21.4756 74.3112 21.4528 74.5254 21.4072C74.7441 21.3617 74.9606 21.3047 75.1748 21.2363V22.7881C74.9515 22.8883 74.6735 22.9704 74.3408 23.0342C74.0127 23.1025 73.6527 23.1367 73.2607 23.1367C72.805 23.1367 72.3949 23.0638 72.0303 22.918C71.6702 22.7676 71.3854 22.5101 71.1758 22.1455C70.9707 21.7764 70.8682 21.2637 70.8682 20.6074V16.9229H69.8701V16.041L71.0186 15.3438L71.6201 13.7305H72.9531V15.3574H75.0928V16.9229H72.9531V20.6074C72.9531 20.8991 73.0352 21.1178 73.1992 21.2637C73.3678 21.4049 73.5889 21.4756 73.8623 21.4756ZM87.377 15.3574V23H85.7773L85.4971 22.0225H85.3877C85.2236 22.2822 85.0186 22.4941 84.7725 22.6582C84.5264 22.8223 84.2552 22.943 83.959 23.0205C83.6628 23.098 83.3551 23.1367 83.0361 23.1367C82.4893 23.1367 82.013 23.041 81.6074 22.8496C81.2018 22.6536 80.8851 22.3506 80.6572 21.9404C80.4339 21.5303 80.3223 20.9971 80.3223 20.3408V15.3574H82.4072V19.8213C82.4072 20.3682 82.5052 20.7806 82.7012 21.0586C82.8971 21.3366 83.2093 21.4756 83.6377 21.4756C84.0615 21.4756 84.3942 21.3799 84.6357 21.1885C84.8773 20.9925 85.0459 20.7077 85.1416 20.334C85.2419 19.9557 85.292 19.4954 85.292 18.9531V15.3574H87.377ZM94.8965 20.7305C94.8965 21.25 94.7734 21.6898 94.5273 22.0498C94.2858 22.4053 93.9235 22.6764 93.4404 22.8633C92.9574 23.0456 92.3558 23.1367 91.6357 23.1367C91.1025 23.1367 90.6445 23.1025 90.2617 23.0342C89.8835 22.9658 89.5007 22.8519 89.1133 22.6924V20.9697C89.528 21.1566 89.9723 21.3115 90.4463 21.4346C90.9248 21.5531 91.3441 21.6123 91.7041 21.6123C92.1097 21.6123 92.3991 21.5531 92.5723 21.4346C92.75 21.3115 92.8389 21.152 92.8389 20.9561C92.8389 20.8285 92.8024 20.7145 92.7295 20.6143C92.6611 20.5094 92.5107 20.3932 92.2783 20.2656C92.0459 20.1335 91.6813 19.9626 91.1846 19.7529C90.7061 19.5524 90.3118 19.3496 90.002 19.1445C89.6966 18.9395 89.4688 18.6979 89.3184 18.4199C89.1725 18.1374 89.0996 17.7796 89.0996 17.3467C89.0996 16.6403 89.373 16.1094 89.9199 15.7539C90.4714 15.3939 91.2074 15.2139 92.1279 15.2139C92.6019 15.2139 93.0531 15.2617 93.4814 15.3574C93.9144 15.4531 94.3587 15.6058 94.8145 15.8154L94.1855 17.3193C93.8073 17.1553 93.4495 17.0208 93.1123 16.916C92.7796 16.8112 92.4401 16.7588 92.0938 16.7588C91.7884 16.7588 91.5583 16.7998 91.4033 16.8818C91.2484 16.9639 91.1709 17.0892 91.1709 17.2578C91.1709 17.3809 91.2096 17.4902 91.2871 17.5859C91.3691 17.6816 91.5241 17.7887 91.752 17.9072C91.9844 18.0212 92.3239 18.1693 92.7705 18.3516C93.2035 18.5293 93.5794 18.7161 93.8984 18.9121C94.2174 19.1035 94.4635 19.3428 94.6367 19.6299C94.8099 19.9124 94.8965 20.2793 94.8965 20.7305Z" fill="white"/>
</g>
<defs>
<filter id="filter0_bd_179_362" x="-15" y="-16" width="146" height="68" filterUnits="userSpaceOnUse" color-interpolation-filters="sRGB">
<feFlood flood-opacity="0" result="BackgroundImageFix"/>
<feGaussianBlur in="BackgroundImageFix" stdDeviation="8"/>
<feComposite in2="SourceAlpha" operator="in" result="effect1_backgroundBlur_179_362"/>
<feColorMatrix in="SourceAlpha" type="matrix" values="0 0 0 0 0 0 0 0 0 0 0 0 0 0 0 0 0 0 127 0" result="hardAlpha"/>
<feOffset dx="3" dy="5"/>
<feGaussianBlur stdDeviation="2"/>
<feComposite in2="hardAlpha" operator="out"/>
<feColorMatrix type="matrix" values="0 0 0 0 0 0 0 0 0 0 0 0 0 0 0 0 0 0 0.25 0"/>
<feBlend mode="normal" in2="effect1_backgroundBlur_179_362" result="effect2_dropShadow_179_362"/>
<feBlend mode="normal" in="SourceGraphic" in2="effect2_dropShadow_179_362" result="shape"/>
</filter>
<linearGradient id="paint0_linear_179_362" x1="-28.4076" y1="10.6364" x2="179.509" y2="24.5077" gradientUnits="userSpaceOnUse">
<stop offset="0.35" stop-color="white"/>
<stop offset="1" stop-color="#999999"/>
</linearGradient>
</defs>
</svg>
